<svg xmlns="http://www.w3.org/2000/svg" viewBox="0 0 250.96 166.04"><defs><style>.cls-1{fill:#00B140}.cls-2{fill:#fff}.cls-3{fill:#231f20}</style></defs><path class="cls-1" d="M280.24 383.25v-17h-34.58v17c0 7.66-7.06 18.58-14.35 18.58v14.86h63.27v-14.86c-7.05 0-14.34-10.92-14.34-18.58zM245.66 310v21.78h68.84l-29.93-49.94h-53.26v12.59c7.29-.02 14.35 7.64 14.35 15.57zM355 281.82l-30 49.94h68.84V310c0-7.91 7.06-15.57 14.34-15.57v-12.61z" transform="translate(-194.25 -265.95)"/><path class="cls-1" d="M96.92 100.32l28.6 47.09 28.59-47.09H96.92z"/><path class="cls-1" d="M393.88 383.25v-17H359.3v17c0 7.66-7.29 18.58-14.35 18.58v14.86h63.27v-14.86c-7.28 0-14.34-10.92-14.34-18.58z" transform="translate(-194.25 -265.95)"/><path class="cls-2" d="M408.2 328v-8.6c0-4.33 0-7.73 1.55-9.27 1.38-1.38 4.57-2.08 9.49-2.08H423V266h-76.79l-26.44 43.84L293.32 266h-76.79v42.1h3.76c4.92 0 8.11.7 9.5 2.08 1.53 1.54 1.54 4.95 1.54 9.27V328h-37.08v42h37.08v3.17c0 5.28 0 10.6-2.76 13.34-1.63 1.64-4.41 2.46-8.28 2.46h-3.76v43h92.88v-6.2l3.72 6.2h13.27s2.69-4.46 3.73-6.2V432H423v-43h-3.76c-3.86 0-6.65-.82-8.28-2.46-2.74-2.74-2.76-8.06-2.76-13.23V370h37v-42zm33.25 38.27h-37v6.83c0 9-.06 19.66 14.8 19.66v35.48h-85.36v-16l-9.61 16h-9l-9.61-16v16h-85.38v-35.48c14.86 0 14.8-10.64 14.8-19.66v-6.83H198v-34.51h37.08v-12.14c0-9.32.06-15.33-14.8-15.33v-34.58h70.92l28.57 47.36 28.56-47.36h70.91v34.58c-14.86 0-14.8 6-14.8 15.33v12.14h37z" transform="translate(-194.25 -265.95)"/><path class="cls-2" d="M154.11 100.32l-28.59 47.09-28.6-47.09h-5.34l33.94 56.25 33.93-56.25h-5.34z"/><path class="cls-2" d="M284.27 379.6v-13.33h-4v17c0 7.66 7.29 18.58 14.34 18.58v14.86h-63.3v-14.88c7.29 0 14.35-10.92 14.35-18.58v-17h-4.15v13.35c0 9.12-5.23 19-14.62 19v22.53H299v-22.48c-8.95 0-14.73-9.36-14.73-19.05zM241.51 313.39v18.37h4.15V310c0-7.91-7.06-15.57-14.35-15.57v-12.61h53.26l29.93 49.94H325l30-49.94h53.26v12.59c-7.28 0-14.34 7.66-14.34 15.57v21.78H398v-18.37c0-8.46 5.23-15.09 14.62-15.09v-21.2h-60.2l-32.68 54.41-32.66-54.41h-60.19v21.2c9.39 0 14.62 6.63 14.62 15.09zM398 379.6v-13.33h-4.15v17c0 7.66 7.06 18.58 14.34 18.58v14.86H345v-14.88c7.06 0 14.35-10.92 14.35-18.58v-17h-4v13.35c0 9.69-5.78 19-14.72 19v22.53h72.1v-22.48c-9.47 0-14.73-9.93-14.73-19.05zM238 361.64h2.87l7.13-16.29v11.16c0 2.56 0 2.92-2.88 3v2.14h11.2v-2c-2.4-.35-3.11-1.3-3.11-3.19V342.7a10.62 10.62 0 0 1 .19-3.15c.2-.4.64-.83 2.92-1.15v-2h-8.16l-7.93 17.75-8.44-17.75h-8v2c2.76.36 2.88.79 2.88 2.09 0 1.66.08 10.89 0 14.52-.12 4-.55 4.26-2.88 4.61v2h9.23v-2c-2.76-.35-3-.87-3-3.51V345zM271.8 359.62v2h9.31v-2.12c-1.65 0-2.13-.27-2.72-1.85l-8-21.69h-2.8l-7.69 21.22c-.47 1.3-.9 2.21-2.52 2.44v2h8v-2.12c-1.7-.07-1.86-.31-1.86-1.1a24.6 24.6 0 0 1 1.22-4.77H272a33.6 33.6 0 0 1 1.46 5.25c0 .23 0 .47-1.66.74zm-6-9.18l2.4-7.23 2.57 7.23zM292.3 351.82c.51 0 .91-.08 1.3-.08a52.17 52.17 0 0 0 5.72 8.44 5.59 5.59 0 0 0 4.34 1.93 16.29 16.29 0 0 0 3.63-.55v-2a4.48 4.48 0 0 1-3.87-1.62 47.19 47.19 0 0 1-5.4-7.86 9 9 0 0 0 3.55-6.93c0-6.63-6.51-7.18-9.66-7.18-2.72 0-7.14.31-9.75.47v2.13c2.61 0 3 .67 3 3.87v13.88c0 1.5-.12 3-3.07 3.27v2h10.61v-2.09c-2.45-.11-2.8-1.33-2.8-2.68v-5zm-2.4-10.15c0-.19.08-1.65.11-2.6a14.17 14.17 0 0 1 1.82-.15c2.52 0 4.73 1.42 4.73 5 0 4.15-2 5.05-4.65 5.05h-2zM317.06 359c-1.78 0-6.47-.43-6.59-5.8h-2.13v7.19a21.57 21.57 0 0 0 8.64 1.93c6.79 0 8.52-4 8.52-6.94a7.37 7.37 0 0 0-2.33-5.65c-1.93-2-4.53-3-6.82-4.42-1.5-.94-2.64-1.89-2.64-3.63 0-1 .55-2.64 3.78-2.64 3.71 0 4.62 1.74 4.86 5.45h2.25v-8.05c-3-.16-3.05-.71-7.66-.71-5.29 0-8 3.15-8 6.9 0 4.42 3.59 6.51 6.71 8.21a18.59 18.59 0 0 1 3.94 2.48 3.14 3.14 0 0 1 1 2.49c.06 1.56-.77 3.19-3.53 3.19zM352.3 338.6v-2.09h-10.64v2.09c2.4 0 3 .27 3 5.09v2.91h-10.5v-2.91c0-4.82.59-5.05 3-5.09v-2.09h-10.65v2.09c2.52 0 3 0 3 3.9v11.56c0 4.85-.44 5-3 5.56v2h10.65v-2c-2.36-.39-3-.71-3-2.76v-7.1h10.5v7.1c0 2.05-.64 2.37-3 2.76v2h10.64v-2c-2.56-.55-3-.71-3-5.56V342.5c.01-3.86.49-3.9 3-3.9zM367.76 359.62v2h9.3v-2.12c-1.65 0-2.12-.27-2.71-1.85l-8-21.69h-2.81l-7.69 21.22c-.47 1.3-.9 2.21-2.52 2.44v2h8v-2.12c-1.7-.07-1.86-.31-1.86-1.1a23.94 23.94 0 0 1 1.23-4.77h7.3a33.6 33.6 0 0 1 1.46 5.25c-.05.23-.05.47-1.7.74zm-6-9.18l2.41-7.23 2.56 7.23zM378.07 359.5v2.14h18.27v-7.3h-1.93c-.83 3.87-2.33 4.34-5.13 4.34-3.08 0-3.27-.63-3.27-2.41v-14.51c.08-2.23.27-2.71.8-2.89a11.84 11.84 0 0 1 2.32-.39v-2h-11.06v2.13c2.22 0 3 .16 3 6v7.86c0 6.64-.82 7.12-3 7.03zM397.36 338.64c2.2 0 3 .16 3 6v7.86c0 6.58-.83 7.06-3 7v2.14h18.26v-7.3h-1.94c-.83 3.87-2.32 4.34-5.12 4.34-3.08 0-3.28-.63-3.28-2.41v-14.51c.07-2.23.26-2.71.79-2.89a12.07 12.07 0 0 1 2.33-.39v-2h-11.04z" transform="translate(-194.25 -265.95)"/><path class="cls-2" d="M230.65 156.97h2.79v8.42h1.01v-8.42h2.94v-1.01h-6.74v1.01zM242.78 163.63l-2.42-7.67h-1.62v9.43h1.01v-8.01l2.53 8.01h1.01l2.52-8.01v8.01h1.01v-9.43h-1.62l-2.42 7.67z"/><path class="cls-3" d="M441.45 366.27v-34.51h-37v-12.14c0-9.32-.06-15.33 14.8-15.33v-34.58h-70.92l-28.56 47.36-28.57-47.36h-70.91v34.58c14.86 0 14.8 6 14.8 15.33v12.14H198v34.51h37.08v6.83c0 9 .06 19.66-14.8 19.66v35.48h85.36v-16l9.61 16h9l9.61-16v16h85.35v-35.48c-14.86 0-14.8-10.64-14.8-19.66v-6.83zm-214.56-68V277.1h60.19l32.69 54.41 32.68-54.41h60.2v21.2c-9.39 0-14.62 6.63-14.62 15.09v18.37H241.51v-18.37c0-8.46-5.23-15.09-14.62-15.09zm151.18 40.34v-2.13h11.09v2a11.84 11.84 0 0 0-2.32.39c-.53.18-.72.66-.8 2.89v14.51c0 1.78.19 2.41 3.27 2.41 2.8 0 4.3-.47 5.13-4.34h1.93v7.3h-18.3v-2.14c2.18.09 3-.39 3-7v-7.86c0-5.84-.78-5.96-3-6zm-10.12 15h-7.25a23.94 23.94 0 0 0-1.23 4.77c0 .79.16 1 1.86 1.1v2.14h-8v-2c1.62-.23 2.05-1.14 2.52-2.44l7.68-21.18h2.81l8 21.69c.59 1.58 1.06 1.85 2.71 1.85v2.14h-9.3v-2c1.65-.27 1.65-.51 1.65-.74a33.6 33.6 0 0 0-1.4-5.31zm-15.65 6v2h-10.64v-2c2.36-.39 3-.71 3-2.76v-7.1h-10.5v7.1c0 2.05.64 2.37 3 2.76v2h-10.65v-2c2.56-.55 3-.71 3-5.56V342.5c0-3.86-.48-3.9-3-3.9v-2.09h10.65v2.09c-2.41 0-3 .27-3 5.09v2.91h10.5v-2.91c0-4.82-.6-5.05-3-5.09v-2.09h10.64v2.09c-2.51 0-3 0-3 3.9v11.56c.01 4.85.44 5.01 3 5.56zm-32.68-6.31a18.59 18.59 0 0 0-3.94-2.48c-3.12-1.7-6.71-3.79-6.71-8.21 0-3.75 2.68-6.9 8-6.9 4.61 0 4.65.55 7.66.71v8.05h-2.25c-.24-3.71-1.15-5.45-4.86-5.45-3.23 0-3.78 1.66-3.78 2.64 0 1.74 1.14 2.69 2.64 3.63 2.29 1.43 4.89 2.45 6.82 4.42a7.37 7.37 0 0 1 2.33 5.65c0 2.95-1.73 6.94-8.52 6.94a21.57 21.57 0 0 1-8.64-1.93v-7.19h2.13c.12 5.37 4.81 5.8 6.59 5.8 2.76 0 3.59-1.62 3.59-3.19a3.14 3.14 0 0 0-1.06-2.48zm-26.92 6.2v2.14h-10.57v-2c2.95-.31 3.07-1.77 3.07-3.27v-13.9c0-3.2-.39-3.87-3-3.87v-2.13c2.61-.16 7-.47 9.75-.47 3.15 0 9.66.55 9.66 7.18a9 9 0 0 1-3.55 6.93 47.19 47.19 0 0 0 5.4 7.86 4.48 4.48 0 0 0 3.87 1.62v2a16.29 16.29 0 0 1-3.63.55 5.59 5.59 0 0 1-4.34-1.93 52.17 52.17 0 0 1-5.72-8.44c-.39 0-.79.08-1.3.08h-2.4v5c-.04 1.32.31 2.54 2.76 2.65zm-20.7-5.87h-7.26a24.6 24.6 0 0 0-1.22 4.77c0 .79.16 1 1.86 1.1v2.14h-8v-2c1.62-.23 2.05-1.14 2.52-2.44l7.68-21.2h2.8l8 21.69c.59 1.58 1.07 1.85 2.72 1.85v2.14h-9.3v-2c1.66-.27 1.66-.51 1.66-.74a33.6 33.6 0 0 0-1.46-5.31zm-38.92 6v2h-9.23v-2c2.33-.35 2.76-.59 2.88-4.61.08-3.63 0-12.86 0-14.52 0-1.3-.12-1.73-2.88-2.09v-2h8l8.44 17.75 7.93-17.75h8.16v2c-2.28.32-2.72.75-2.92 1.15a10.62 10.62 0 0 0-.19 3.15v13.73c0 1.89.71 2.84 3.11 3.19v2h-11.2v-2.13c2.84-.07 2.88-.43 2.88-3v-11.15l-7.14 16.29H238L230 345v11.16c0 2.59.32 3.11 3.08 3.46zM299 421.18h-72.11v-22.53c9.39 0 14.62-9.93 14.62-19v-13.38h42.76v13.33c0 9.69 5.78 19 14.71 19zm20.79 1.35l-33.93-56.26h67.84zm92.88-23.88v22.53h-72.1v-22.53c8.94 0 14.72-9.36 14.72-19v-13.38H398v13.33c0 9.12 5.26 19.05 14.65 19.05zm-15.29-37v-2.15c2.16.09 3-.39 3-7v-7.86c0-5.87-.79-6-3-6v-2.13h11.08v2a12.07 12.07 0 0 0-2.33.39c-.53.18-.72.66-.79 2.89v14.51c0 1.78.2 2.41 3.28 2.41 2.8 0 4.29-.47 5.12-4.34h1.94v7.3z" transform="translate(-194.25 -265.95)"/><path class="cls-3" d="M296.56 343.92c0-3.58-2.21-5-4.73-5a14.17 14.17 0 0 0-1.82.15c0 .95-.11 2.41-.11 2.6V349h2c2.69 0 4.66-.93 4.66-5.08z" transform="translate(-194.25 -265.95)"/><path class="cls-3" d="M71.55 84.48h4.98l-2.57-7.22-2.41 7.22zM167.51 84.48h4.97l-2.57-7.22-2.4 7.22z"/></svg>