<svg xmlns="http://www.w3.org/2000/svg" id="Layer_2" data-name="Layer 2" viewBox="0 0 989.92 982.94"><defs><style>.cls-1{fill:none;stroke:#00a84f;stroke-miterlimit:10;stroke-width:13px}.cls-2{fill:#00a84f}</style></defs><g id="Layer_1-2" data-name="Layer 1"><path d="M297.02 685.78c.31.49.62.98.9 1.47l-.92-.76v-.7Zm394.77 0c-.3.49-.61.98-.9 1.47l.93-.76-.02-.7Zm-108.14 61.06c19-2.91 37.04-11.52 53.57-21.29.45-.17.87-.33 1.28-.48-5.23 15.52 31.29 18.14 47.83 13.7 14.66-3.94 39.37-15.86 43.82-27.39-48.69-3.37-53.55-2.51-91.65 13.7l3.29-2.28c14.61-9.03 30.2-20.47 46.78-34.36.79-.44 1.56-.84 2.31-1.19 8.75 16.06 37.11 7.61 49.55.52 14.79-8.42 27.08-20.56 34.75-34.9-37.17 1.72-56.83 12.39-76.69 28.14 13.92-12.38 26.2-25.84 36.85-40.15l-.12.4c36.91 3.41 62.77-24.73 71.23-56.19-14.73 3.78-25.16 8.73-37.22 16.66-8 5.25-12.67 9.16-16.74 13.01 6.13-10.67 11.46-21.7 15.98-32.98 31.72-3.17 50.22-36.33 53.31-70.65-16.45 6.84-20.71 14.27-34.61 29.07-2.56 2.72-5.4 5.89-8.13 9.41a268.55 268.55 0 0 0 6.56-34.56c27.32-9.03 40.38-46.46 33.72-82.02-10.54 11.72-14.76 16.07-23.89 32.65-3.28 5.95-5.85 11.29-7.8 16.66.02-13.55-.97-27.13-2.96-40.63 14.77 2.72 21.48-23.08 22.59-34.58 1.47-15.16.46-34.03-7.16-45.26-12.26 14.66-17.62 37.52-19.01 60.38-11.25-50.99-37.06-100.03-77.45-140.69.82.19 1.66.37 2.49.51 2.22-25.72-26.79-45.21-52.66-46.54 8.21 18.21 25.3 39.57 48.56 45.64 38.91 43.21 63.48 95.14 71.37 150.07-.07-.1-.14-.12-.19-.02-2.48 5.89-.47-31.42-48.3-42.18 5.05 20.48 30.76 68.13 49.77 52.49 1.96 18.63 2.02 37.55.07 56.55-3.48-11.18-2.79-20.43-11.04-31.72-7.65-10.48-15.08-18.35-28.11-22.49 1.15 17.62 6.03 33.45 12.81 46.94 5.78 11.49 12.25 20.86 22.58 21.17l1.98-.06c-2.62 17.07-6.88 34.15-12.81 51.1 2.37-30.05-8.6-53.28-26.56-62.71-3.49 32.7 1.17 60.23 20.2 76.14l2.89-4.03c-5.92 15.21-13.23 30.3-21.97 45.13 5.31-27.74 2.99-49.23-15.89-64.41-7.2 28.57-12.9 62.54 6.62 79.24-4.44 6.7-9.18 13.33-14.22 19.9l-13.34 14.3c10.67-33.75 9.43-34.74-.7-66.71-5.21 4.17-2.03.32-6.62 7.06-9.24 13.57-21.92 59.11-6.58 71.74l2.42 1.37c-14.61 11.64-28.74 21.75-42.36 30.35 16.36-15.97 26.98-35.53 17.83-71.05-11.66 8.69-46.85 60.67-28.52 77.55-13.28 7.75-33.02 17.08-49.72 22.67v7.31Zm146.58-419.77c-21.79-.5-40.85-8.86-55.35-24.43-6.06-6.52-2.37-2.1-5.01-7.1 22.95-9.91 60.99 7.83 60.36 31.53m28.16 55.96c-25.22.42-48.87-26.29-55.44-43.28 29.3-1.7 55.48 17.21 55.44 43.28m-15.99-65.01c-19.49-11.47-24.16-47.71-24.15-76.12 9.01 4.73 8.1 4.76 14.32 13.45 11.27 15.72 25.42 45.64 9.83 62.67m28.85 60.07c-15.66-16.84-14.02-57.38-4.91-81.31 16.96 17.53 26.89 62.72 4.91 81.31M405.16 746.84c-19-2.91-37.04-11.52-53.57-21.29-.44-.17-.87-.33-1.27-.48 5.22 15.52-31.29 18.14-47.83 13.7-14.66-3.94-39.37-15.86-43.83-27.39 48.68-3.37 53.56-2.51 91.66 13.7l-3.3-2.28c-14.6-9.03-30.2-20.47-46.79-34.36-.78-.44-1.56-.84-2.31-1.19-8.75 16.06-37.11 7.61-49.54.52-14.8-8.42-27.08-20.56-34.75-34.9 37.17 1.72 56.83 12.39 76.69 28.14-13.92-12.38-26.2-25.84-36.86-40.15l.12.4c-36.9 3.41-62.76-24.73-71.22-56.19 14.72 3.78 25.15 8.73 37.22 16.66 7.99 5.25 12.66 9.16 16.73 13.01a264.212 264.212 0 0 1-15.99-32.98c-31.72-3.17-50.21-36.33-53.31-70.65 16.45 6.84 20.7 14.27 34.61 29.07 2.57 2.72 5.42 5.89 8.14 9.41a268.55 268.55 0 0 1-6.56-34.56c-27.32-9.03-40.38-46.46-33.72-82.02 10.53 11.72 14.76 16.07 23.88 32.65 3.29 5.95 5.86 11.29 7.8 16.66-.02-13.55.98-27.13 2.97-40.63-14.77 2.72-21.48-23.08-22.59-34.58-1.48-15.16-.47-34.03 7.16-45.26 12.26 14.66 17.61 37.52 19.01 60.38 11.25-50.99 37.06-100.03 77.44-140.69-.83.19-1.65.37-2.49.51-2.21-25.72 26.78-45.21 52.67-46.54-8.22 18.21-25.31 39.57-48.58 45.64-38.9 43.21-63.46 95.14-71.36 150.07.08-.1.13-.12.19-.02 2.49 5.89.47-31.42 48.31-42.18-5.06 20.48-30.76 68.13-49.77 52.49a273.322 273.322 0 0 0-.07 56.55c3.48-11.18 2.79-20.43 11.04-31.72 7.65-10.48 15.07-18.35 28.11-22.49-1.15 17.62-6.03 33.45-12.82 46.94-5.78 11.49-12.25 20.86-22.58 21.17l-1.98-.06c2.63 17.07 6.89 34.15 12.83 51.1-2.38-30.05 8.58-53.28 26.54-62.71 3.49 32.7-1.16 60.23-20.2 76.14l-2.88-4.03c5.92 15.21 13.23 30.3 21.96 45.13-5.31-27.74-2.98-49.23 15.88-64.41 7.21 28.57 12.92 62.54-6.6 79.24 4.43 6.7 9.18 13.33 14.22 19.9l13.34 14.3c-10.67-33.75-9.44-34.74.69-66.71 5.21 4.17 2.04.32 6.62 7.06 9.24 13.57 21.91 59.11 6.59 71.74l-2.43 1.37c14.62 11.64 28.74 21.75 42.36 30.35-16.36-15.97-26.98-35.53-17.83-71.05 11.67 8.69 46.86 60.67 28.53 77.55 13.27 7.75 33.01 17.08 49.72 22.67v7.31ZM258.57 327.07c21.78-.5 40.85-8.86 55.35-24.43 6.07-6.52 2.38-2.1 5.02-7.1-22.95-9.91-60.99 7.83-60.37 31.53m-28.14 55.96c25.22.42 48.87-26.29 55.43-43.28-29.31-1.7-55.48 17.21-55.43 43.28m15.99-65.01c19.49-11.47 24.16-47.71 24.15-76.12-9.02 4.73-8.09 4.76-14.31 13.45-11.27 15.72-25.44 45.64-9.84 62.67m-28.87 60.07c15.67-16.84 14.02-57.38 4.92-81.31-16.97 17.53-26.89 62.72-4.92 81.31" class="cls-2"/><path d="M632.83 393.15v-19.43h-82.76l-54.66 90.61-54.69-90.61h-82.76v19.43c11.32 0 22.29 11.82 22.29 24.02V530.2c0 11.82-10.97 28.66-22.29 28.66v22.92h98.3v-22.92c-10.97 0-22.29-16.84-22.29-28.66v-53.96l61.43 100.42 61.41-100.42v53.96c0 11.82-11.33 28.66-22.3 28.66v22.92h98.31v-22.92c-11.31 0-22.29-16.84-22.29-28.66V417.17c0-12.2 10.98-24.02 22.29-24.02" class="cls-2"/><path d="m495.41 428.09-44.39-73.05H340.86v53.33c23.09 0 22.99 9.27 22.99 23.66v82.48c0 13.93.1 30.34-22.99 30.34v54.73h132.61v-24.67l14.94 24.67h14.01l14.93-24.67v24.67h132.62v-54.73c-23.1 0-23-16.41-23-30.34v-82.48c0-14.39-.1-23.66 23-23.66v-53.33H539.79l-44.37 73.05Zm144.29-61.64v32.7c-14.57 0-22.71 10.23-22.71 23.27v102.15c0 14.07 8.13 29.4 22.71 29.4v34.75H527.69v-34.75c13.88 0 22.87-14.44 22.87-29.4v-24.56L495.4 590.8l-55.16-90.79v24.56c0 14.95 8.98 29.4 22.87 29.4v34.75H351.09v-34.75c14.58 0 22.71-15.33 22.71-29.4V422.42c0-13.04-8.12-23.27-22.71-23.27v-32.7h93.51l50.8 83.94 50.78-83.94h93.51Z" class="cls-2"/><ellipse cx="494.96" cy="491.47" class="cls-1" rx="488.46" ry="484.97"/><path d="m142.38 262.5.1-.16-22.06-37.41 9.16-13.9 56.11 36.96-7.13 10.82-41.9-27.82-.1.16 24.2 42.44-.94 1.42-48.5-5.56-.1.16 42.11 27.51-7.18 10.9-56.11-36.96 9.21-13.98 43.13 5.42ZM225.36 207.36l-13.82-6.19-19.11 19.6 6.61 13.59-10.65 10.92-29.13-66.24 9.99-10.24 66.76 27.64-10.65 10.92Zm-37.68 3.49 13.82-14.18-15.37-6.91c-4.04-1.83-8.29-3.98-12.42-6.55l-.26.27c2.67 4.06 4.93 8.25 6.86 12.24l7.36 15.12ZM281.81 161.15l.43 1.69-11.11 8.29-30.43-10.46-6.01 4.49 15.9 21.3-10.8 8.06-40.06-53.67 18.03-13.46c12.7-9.48 23.55-9.08 31.81 1.99 5.21 6.97 5.31 14.57.54 21.67l31.7 10.1Zm-64.71-19.58 11.32 15.16 6.09-4.54c6.92-5.17 8.48-9.75 4.57-14.98-4.19-5.61-9.04-5.29-15.89-.18l-6.09 4.54ZM277.47 152.17l5.01-10.05 1.73-.4c6.02 3.49 11.04 3.77 16.21.94 5.25-2.87 7.08-8.06 4.91-12.04-2.17-3.98-5.78-5.24-18.39-3.95-14.22 1.52-21.19-1.34-25.63-9.47-4.89-8.95-.85-20.19 11-26.66 8.76-4.78 17.34-4.73 24.86-.66l-4.84 10.17-1.68.49c-4.24-2.21-8.45-2.6-12.96-.14-4.84 2.64-6.23 6.63-4.33 10.11 1.76 3.23 4.43 4.15 17.43 2.97 15.33-1.27 21.89 1.82 26.18 9.7 5.47 10.03 1.1 22.64-11.08 29.29-9.51 5.19-18.84 5.34-28.42-.3ZM333.68 135.82l-22.67-62.83 12.5-4.51 9.22 25.56 27.68-9.99-9.22-25.56 12.5-4.51 22.67 62.83-12.5 4.51-9.45-26.18-27.68 9.99 9.44 26.18-12.5 4.51ZM442.51 105.95l-7.63-12.99-26.98 4.84-2.55 14.82-15.03 2.69 14.93-70.45 14.1-2.53 38.19 60.93-15.03 2.69Zm-32.69-18.93 19.51-3.5-8.47-14.47c-2.23-3.81-4.42-8.01-6.28-12.47l-.37.07c-.2 4.82-.8 9.52-1.56 13.87l-2.83 16.49ZM460.07 37.31l13.26-.41 1.68 54.65 29.94-.92-1.15 11.99-41.69 1.28-2.05-66.59ZM518.45 36.85l13.22 1.29-5.32 54.43 29.83 2.92-2.67 11.75-41.54-4.06 6.49-66.33ZM605.98 50.25l37.86 11.35-2.09 11.28-26.3-7.88-4.74 15.8 24.03 7.2-3.17 10.56-24.03-7.2-7.98 26.63-12.74-3.82 19.16-63.92ZM645.75 96.53c8.82-18.19 29.04-25.09 48.08-15.86s26.15 29.37 17.33 47.57c-8.74 18.02-29.2 25.01-48.08 15.86-18.87-9.15-26.07-29.54-17.33-47.56Zm52.78 25.57c5.77-11.9 1.65-24.72-10.05-30.39-11.61-5.63-24.31-.97-30.08 10.93-5.65 11.65-1.52 24.67 10.09 30.3 11.61 5.63 24.39.8 30.04-10.85ZM748.09 193.8l-1.48.91-11.23-8.12.89-32.16-6.08-4.4-15.58 21.53-10.92-7.9 39.24-54.25 18.23 13.19c12.84 9.29 15.7 19.76 7.61 30.95-5.1 7.05-12.32 9.42-20.52 6.99l-.16 33.26Zm-.67-67.6-11.08 15.33 6.15 4.45c7 5.06 11.84 5.18 15.66-.11 4.1-5.67 2.35-10.21-4.58-15.22l-6.15-4.45ZM799.08 249.54l7.25-13.3-18.06-20.57-14.06 5.54-10.06-11.46 68.31-23.92 9.43 10.75L809.13 261l-10.06-11.46Zm-.54-37.84 13.06 14.88 8.09-14.79c2.14-3.89 4.62-7.96 7.49-11.87l-.25-.28c-4.25 2.34-8.61 4.28-12.74 5.89l-15.65 6.17ZM867.36 228.54l7.21 11.14-46.22 29.91 16.27 25.14-10.93 5.26-22.65-35 56.33-36.44ZM897.95 277.95l5.73 11.94-49.65 23.84 12.94 26.95-11.51 3.85L837.44 307l60.51-29.05Z" class="cls-2"/><ellipse cx="494.96" cy="491.47" class="cls-1" rx="360.19" ry="357.61"/><path d="m113.28 699.02.09.17 43.35-2.62 8.2 14.47-58.46 33.13-6.38-11.27 43.86-24.63-.09-.16-48.8 2.24-.84-1.48 27.05-40.64-.09-.17-43.67 24.96-6.43-11.35 58.46-33.13 8.25 14.55-24.48 35.92ZM149.25 796.13l7.5-13.16-17.67-20.89-14.16 5.28-9.85-11.64 68.74-22.68 9.24 10.92-33.95 63.82-9.85-11.64Zm.16-37.84 12.78 15.11 8.36-14.64c2.21-3.85 4.76-7.88 7.71-11.73l-.25-.29c-4.29 2.27-8.68 4.12-12.85 5.66l-15.76 5.89ZM210.55 850.03l-1.56.78-10.47-9.08 3.73-31.96-5.66-4.91-17.42 20.09-10.18-8.83 43.9-50.62 16.99 14.73c11.97 10.38 13.89 21.06 4.84 31.5-5.7 6.58-13.1 8.3-21.06 5.16l-3.11 33.13Zm5.33-67.41-12.4 14.3 5.73 4.97c6.52 5.66 11.33 6.2 15.61 1.26 4.59-5.29 3.24-9.96-3.21-15.56l-5.73-4.97ZM222.89 845.4l11.23-.37 1.18 1.33c-.22 6.96 1.93 11.51 6.87 14.72 5.02 3.26 10.45 2.4 12.93-1.4 2.47-3.8 1.87-7.58-5.26-18.07-8.09-11.79-8.88-19.29-3.83-27.06 5.56-8.56 17.38-10.35 28.69-2.99 8.36 5.44 12.39 13.01 12.38 21.57l-11.25.58-1.23-1.25c-.07-4.78-1.73-8.67-6.03-11.47-4.62-3-8.79-2.33-10.96.99-2.01 3.09-1.55 5.87 5.66 16.75 8.39 12.89 8.78 20.13 3.89 27.66-6.23 9.59-19.41 11.73-31.04 4.17-9.08-5.9-13.65-14.05-13.22-25.16ZM271.82 890.24l27.79-60.8 12.09 5.53-11.31 24.73 26.77 12.24 11.31-24.73 12.09 5.53-27.79 60.8-12.09-5.53 11.58-25.33-26.77-12.24-11.58 25.33-12.09-5.53ZM386.2 932.42l-1.27-15.03-26.43-7.29-8.7 12.28-14.72-4.06L379 861.17l13.81 3.81 8.13 71.51-14.73-4.06Zm-21.31-31.22 19.12 5.27-1.39-16.72c-.36-4.4-.53-9.15-.28-13.97l-.37-.1c-2.26 4.27-4.84 8.25-7.4 11.85l-9.68 13.67ZM422.06 871.67l13.17 1.75-7.2 54.23 29.72 3.95-3.08 11.65-41.38-5.5 8.78-66.09ZM470.49 877.42l13.27.17-.71 54.67 29.95.39-1.67 11.93-41.7-.54.87-66.62ZM544.37 875.08l38.94-6.58 3.12 11.03-27.05 4.57 2.75 16.25 24.71-4.18 1.84 10.86-24.71 4.18 4.63 27.39-13.1 2.21-11.11-65.75ZM599.5 900.04c-6.32-19.18 3.4-38.18 23.49-44.81 20.1-6.63 39.21 2.87 45.54 22.04 6.26 19-3.58 38.24-23.49 44.81-19.92 6.57-39.27-3.04-45.54-22.04Zm55.7-18.36c-4.14-12.55-16.01-18.86-28.36-14.79-12.26 4.04-18.13 16.21-14 28.76 4.05 12.28 16.07 18.74 28.33 14.7 12.26-4.04 18.08-16.39 14.03-28.67ZM742.17 875.28l.15 1.73-12.32 6.35-28.28-15.28-6.67 3.44 12.16 23.59-11.98 6.18-30.65-59.44 20-10.31c14.09-7.27 24.72-5.1 31.04 7.16 3.98 7.72 2.83 15.22-3.05 21.44l29.6 15.13Zm-60.59-29.87 8.66 16.79 6.75-3.48c7.68-3.96 9.97-8.22 6.98-14.01-3.2-6.21-8.04-6.69-15.64-2.78l-6.75 3.48ZM714.75 815.16l33.52-23.21 7.6 8.64-23.68 16.39 9.04 13.05 21.49-14.88 6.29 9.09-21.49 14.88 9.74 14.06 23.68-16.39 5.42 10.16-33.52 23.21-38.09-55ZM817.42 822.26l-66.01-31.56 11.23-10.33 35.18 18.22c3.34 1.82 7.35 3.92 11.46 6.71l.35-.32c-2.43-4.33-4.14-8.29-5.61-11.83l-15.5-36.59 11.23-10.33 26.03 68.34-8.37 7.7ZM801.84 743.06l25.86-31.44 9.69 6.25-18.26 22.21 12.29 10.11L848 730.04l8.56 7.04-16.58 20.15 13.24 10.89 18.26-22.21 8 8.3-25.86 31.44-51.78-42.59ZM917.79 692.65l1.02 1.41-7.3 11.74-32.17 1.29-3.95 6.35 22.63 14.07-7.1 11.41-57.01-35.44 11.84-19.05c8.34-13.42 18.59-16.98 30.35-9.67 7.41 4.6 10.29 11.64 8.46 19.97l33.22-2.08Zm-67.44 5.23 16.11 10.01 4-6.43c4.55-7.31 4.31-12.14-1.25-15.6-5.96-3.7-10.36-1.65-14.86 5.59l-4 6.43ZM92.55 469.3c0 13.06-10.66 23.63-23.81 23.63s-23.8-10.58-23.8-23.63 10.66-23.64 23.8-23.64 23.81 10.58 23.81 23.64M947.19 469.3c0 13.06-10.66 23.63-23.81 23.63s-23.8-10.58-23.8-23.63 10.66-23.64 23.8-23.64 23.81 10.58 23.81 23.64" class="cls-2"/></g></svg>