<svg xmlns="http://www.w3.org/2000/svg" id="Layer_2" data-name="Layer 2" viewBox="0 0 409.07 79.15"><defs><style>.cls-1{fill:#fff}</style></defs><g id="Layer_1-2" data-name="Layer 1"><path d="M0 35.74h409.07v43.41H0z" style="fill:#00a84f"/><path d="M20.63 23.26h2.66l7.51-12.62.04 15.32h5.54L36.31.44h-4.85l-9.4 15.85L12.5.44H7.61v25.52h5.54V10.97l7.48 12.29zM59.23 20.49l2.27 5.47h6.2L56.29.44h-5.83L39.08 25.96h6.05l2.27-5.47h11.83Zm-5.9-14.25 4.05 9.77h-8.11l4.06-9.77ZM76.27 18.85h5.14c.09 0 .18 0 .27-.01l4.91 7.12h6.38l-5.7-8.18s.04-.01.05-.02c1.65-.73 2.93-1.78 3.83-3.15.9-1.37 1.35-3.01 1.35-4.9s-.45-3.57-1.35-4.96c-.9-1.39-2.18-2.45-3.83-3.19C85.67.82 83.7.45 81.41.45H70.36v25.52h5.91v-7.11Zm8.89-12.43c.9.78 1.35 1.87 1.35 3.28s-.45 2.47-1.35 3.26c-.9.79-2.26 1.19-4.08 1.19h-4.81v-8.9h4.81c1.82 0 3.18.39 4.08 1.17ZM108.41 21.31c-.72.23-1.66.35-2.83.35-1.53 0-3.04-.25-4.54-.75s-2.79-1.14-3.88-1.91l-2.01 4.45c1.14.88 2.65 1.59 4.52 2.13 1.87.55 3.83.82 5.87.82 2.43 0 4.44-.36 6.03-1.09s2.79-1.69 3.59-2.88c.8-1.19 1.2-2.5 1.2-3.94 0-1.34-.27-2.44-.82-3.32a6.412 6.412 0 0 0-2.13-2.11c-.88-.53-1.84-.96-2.9-1.28-1.06-.32-2.11-.6-3.17-.84a67.72 67.72 0 0 1-2.9-.73c-.88-.24-1.58-.57-2.12-.97-.53-.4-.8-.93-.8-1.59 0-.56.16-1.05.47-1.48.32-.42.84-.77 1.57-1.04.73-.27 1.66-.4 2.81-.4s2.31.16 3.5.49c1.19.33 2.38.83 3.57 1.51l1.82-4.48c-1.19-.75-2.57-1.32-4.12-1.7-1.56-.38-3.14-.57-4.74-.57-2.41 0-4.41.36-6 1.08-1.59.72-2.78 1.68-3.57 2.88s-1.18 2.53-1.18 3.99c0 1.36.27 2.48.82 3.35s1.26 1.58 2.13 2.11 1.84.97 2.9 1.31c1.06.34 2.12.63 3.17.86 1.06.23 2.02.47 2.9.73.88.25 1.58.58 2.11.98.53.4.8.94.8 1.62 0 .54-.17 1.01-.51 1.42-.34.41-.87.74-1.59.97ZM137.92 10.5h-11.59V.44h-5.91v25.52h5.91V15.5h11.59v10.46h5.91V.44h-5.91V10.5zM157.9.44l-11.38 25.52h6.05l2.27-5.47h11.83l2.27 5.47h6.2L163.74.44h-5.83Zm-1.18 15.57 4.06-9.77 4.05 9.77h-8.11ZM196.51 21.15h-12.79V.44h-5.91v25.52h18.7v-4.81zM205.74.44h-5.91v25.52h18.71v-4.81h-12.8V.44zM238.08 16.66h11.81v-4.74h-11.81V5.18h13.38V.44h-19.29v25.52h5.91v-9.3zM280.48 18.47c.7-1.62 1.06-3.37 1.06-5.27s-.35-3.68-1.06-5.27c-.71-1.59-1.68-2.98-2.94-4.17s-2.72-2.11-4.41-2.77c-1.69-.66-3.54-.98-5.56-.98s-3.84.33-5.54.98c-1.7.66-3.19 1.58-4.45 2.77s-2.24 2.59-2.93 4.19c-.69 1.6-1.04 3.35-1.04 5.25s.35 3.65 1.04 5.25 1.67 3 2.92 4.19c1.25 1.19 2.73 2.12 4.45 2.77s3.58.98 5.6.98 3.83-.33 5.52-.98 3.16-1.57 4.41-2.75 2.23-2.58 2.94-4.19Zm-5.52-1.95c-.4 1-.97 1.86-1.7 2.59s-1.57 1.29-2.53 1.68c-.96.39-2.01.58-3.15.58s-2.2-.19-3.17-.58c-.97-.39-1.82-.95-2.53-1.68s-1.28-1.6-1.68-2.61-.6-2.11-.6-3.3.2-2.32.6-3.32.97-1.86 1.7-2.59c.73-.73 1.57-1.29 2.53-1.68.96-.39 2.01-.58 3.15-.58s2.2.19 3.17.58c.97.39 1.82.95 2.53 1.68.72.73 1.28 1.59 1.68 2.59s.6 2.1.6 3.32-.2 2.32-.6 3.32ZM308.59 25.96l-5.7-8.18s.04-.01.05-.02c1.65-.73 2.93-1.78 3.83-3.15.9-1.37 1.35-3.01 1.35-4.9s-.45-3.57-1.35-4.96c-.9-1.39-2.18-2.45-3.83-3.19-1.65-.74-3.62-1.11-5.91-1.11h-11.05v25.52h5.91v-7.11h5.14c.09 0 .18 0 .27-.01l4.91 7.12h6.38Zm-7.8-19.54c.9.78 1.35 1.87 1.35 3.28s-.45 2.47-1.35 3.26c-.9.79-2.26 1.19-4.08 1.19h-4.81v-8.9h4.81c1.82 0 3.18.39 4.08 1.17ZM331.13.44l-11.38 25.52h6.05l2.27-5.47h11.83l2.27 5.47h6.2L336.96.44h-5.83Zm-1.19 15.57L334 6.24l4.05 9.77h-8.11ZM356.94.44h-5.91v25.52h18.71v-4.81h-12.8V.44zM391.76 21.15h-12.8V.44h-5.91v25.52h18.71v-4.81zM400.47 20.15c-.66-.64-1.5-.97-2.52-.97s-1.83.32-2.52.95c-.68.63-1.02 1.48-1.02 2.55s.33 1.91 1 2.52c.28.26.6.45.95.59l-1.59 5.79h3.61l2.08-5.25c.29-.66.5-1.2.64-1.62.13-.42.22-.79.27-1.09s.07-.61.07-.93c0-1.04-.33-1.89-.98-2.53ZM29.66 61.61 19.02 43.46h-2.14v24.5h2.49V48.48l9.62 16.37h1.23l9.62-16.49v19.6h2.49v-24.5h-2.14L29.66 61.61zM57.59 43.46l-11.2 24.5h2.7l2.93-6.54h13.67l2.93 6.54h2.73l-11.2-24.5h-2.56Zm-4.64 15.86 5.9-13.18 5.9 13.18H52.96ZM89.93 59.19c1.49-.67 2.64-1.62 3.45-2.87.8-1.25 1.21-2.74 1.21-4.46s-.4-3.28-1.21-4.53c-.8-1.25-1.96-2.21-3.45-2.87-1.49-.67-3.28-1-5.36-1H75.4v24.5h2.59v-7.77h6.58c.69 0 1.34-.05 1.97-.12l5.6 7.89h2.83l-6-8.41c.33-.11.65-.22.96-.35Zm-5.43-1.2h-6.51V45.7h6.51c2.45 0 4.31.54 5.58 1.61 1.27 1.07 1.91 2.59 1.91 4.55s-.64 3.44-1.91 4.51c-1.27 1.07-3.13 1.61-5.58 1.61ZM113.6 56.46c-.9-.48-1.88-.87-2.94-1.17-1.06-.3-2.13-.58-3.2-.84s-2.06-.55-2.96-.88c-.9-.33-1.62-.78-2.17-1.37-.55-.58-.82-1.35-.82-2.31 0-.84.23-1.59.68-2.26s1.16-1.2 2.12-1.59c.96-.4 2.17-.59 3.64-.59 1.1 0 2.23.16 3.41.49s2.29.84 3.34 1.54l.88-2.07c-.98-.68-2.15-1.21-3.5-1.59-1.35-.38-2.72-.58-4.09-.58-2.08 0-3.78.31-5.11.93s-2.32 1.43-2.96 2.45a6.131 6.131 0 0 0-.96 3.34c0 1.31.27 2.36.82 3.17.55.8 1.27 1.45 2.17 1.94s1.88.88 2.96 1.17 2.15.57 3.22.82 2.05.55 2.94.89c.89.34 1.6.8 2.15 1.38.55.58.82 1.35.82 2.31 0 .79-.23 1.52-.68 2.17s-1.17 1.17-2.13 1.56c-.97.38-2.22.58-3.76.58s-3.14-.29-4.6-.86c-1.46-.57-2.62-1.28-3.48-2.12l-1.01 2c.91.93 2.2 1.7 3.87 2.29 1.67.59 3.41.89 5.23.89 2.1 0 3.82-.31 5.16-.93 1.34-.62 2.34-1.43 2.99-2.45.65-1.01.98-2.12.98-3.31 0-1.28-.27-2.32-.82-3.12a6.09 6.09 0 0 0-2.17-1.91ZM140.15 54.38h-15.33V43.46h-2.59v24.5h2.59v-11.3h15.33v11.3h2.56v-24.5h-2.56v10.92zM157.97 43.46l-11.2 24.5h2.7l2.93-6.54h13.67l2.93 6.54h2.73l-11.2-24.5h-2.56Zm-4.64 15.86 5.9-13.18 5.9 13.18h-11.79ZM178.37 43.46h-2.59v24.5h16.31v-2.24h-13.72V43.46zM198.99 43.46h-2.59v24.5h16.31v-2.24h-13.72V43.46zM226.18 67.96h2.59V57.57h12.67v-2.24h-12.67V45.7h14.21v-2.24h-16.8v24.5zM267.92 46.79a12.296 12.296 0 0 0-4.08-2.61c-1.56-.62-3.27-.93-5.11-.93s-3.58.31-5.14.93c-1.56.62-2.92 1.49-4.08 2.62s-2.05 2.45-2.69 3.96c-.64 1.5-.96 3.16-.96 4.95s.32 3.45.96 4.95c.64 1.5 1.54 2.82 2.69 3.96 1.16 1.13 2.52 2.01 4.09 2.62 1.58.62 3.28.93 5.13.93s3.55-.31 5.11-.93c1.56-.62 2.92-1.49 4.08-2.61s2.05-2.44 2.7-3.96c.64-1.52.96-3.17.96-4.97s-.32-3.45-.96-4.97c-.64-1.52-1.54-2.83-2.7-3.96Zm.3 12.96a9.94 9.94 0 0 1-2.15 3.22c-.92.92-2.01 1.63-3.26 2.13s-2.61.75-4.08.75-2.83-.25-4.09-.75a9.545 9.545 0 0 1-3.27-2.13c-.92-.92-1.65-2-2.17-3.24-.53-1.24-.79-2.58-.79-4.03s.26-2.82.79-4.04c.52-1.22 1.25-2.3 2.17-3.22s2.01-1.63 3.27-2.13 2.62-.75 4.09-.75 2.83.25 4.08.75 2.33 1.21 3.26 2.13c.92.92 1.64 2 2.15 3.22.51 1.23.77 2.57.77 4.04s-.26 2.82-.77 4.04ZM291.91 59.19c1.49-.67 2.64-1.62 3.45-2.87.8-1.25 1.21-2.74 1.21-4.46s-.4-3.28-1.21-4.53c-.8-1.25-1.96-2.21-3.45-2.87-1.49-.67-3.28-1-5.36-1h-9.17v24.5h2.59v-7.77h6.58c.69 0 1.34-.05 1.97-.12l5.6 7.89h2.83l-6-8.41c.33-.11.65-.22.96-.35Zm-5.43-1.2h-6.51V45.7h6.51c2.45 0 4.31.54 5.58 1.61 1.27 1.07 1.91 2.59 1.91 4.55s-.64 3.44-1.91 4.51c-1.27 1.07-3.13 1.61-5.58 1.61ZM305.28 56.62h12.67v-2.2h-12.67V45.7h14.21v-2.24h-16.8v24.5h17.32v-2.24h-14.73v-9.1zM334.05 64.78l-9.38-21.32h-2.8l10.85 24.5h2.55l10.85-24.5h-2.62l-9.45 21.32zM352.25 56.62h12.67v-2.2h-12.67V45.7h14.21v-2.24h-16.8v24.5h17.32v-2.24h-14.73v-9.1zM387.6 59.19c1.49-.67 2.64-1.62 3.45-2.87.8-1.25 1.21-2.74 1.21-4.46s-.4-3.28-1.21-4.53c-.81-1.25-1.96-2.21-3.45-2.87s-3.28-1-5.35-1h-9.17v24.5h2.59v-7.77h6.58c.69 0 1.34-.05 1.97-.12l5.59 7.89h2.83l-6-8.41c.33-.11.65-.22.96-.35Zm-5.43-1.2h-6.51V45.7h6.51c2.45 0 4.31.54 5.58 1.61 1.27 1.07 1.91 2.59 1.91 4.55s-.64 3.44-1.91 4.51c-1.27 1.07-3.13 1.61-5.58 1.61Z" class="cls-1"/></g></svg>